<svg xmlns="http://www.w3.org/2000/svg" width="10pt" height="11pt" viewBox="0 0 10 11"><path d="M0 9.969C0 10.539.48 11 1.07 11h7.86c.59 0 1.07-.46 1.07-1.031V4.125H0zm7.145-4.211c0-.14.117-.258.265-.258h.895c.144 0 .265.117.265.258v.86c0 .14-.12.257-.265.257H7.41a.262.262 0 01-.265-.258zm0 2.75c0-.14.117-.258.265-.258h.895c.144 0 .265.117.265.258v.86c0 .14-.12.257-.265.257H7.41a.262.262 0 01-.265-.258zm-2.86-2.75c0-.14.121-.258.27-.258h.89c.149 0 .27.117.27.258v.86c0 .14-.121.257-.27.257h-.89a.265.265 0 01-.27-.258zm0 2.75c0-.14.121-.258.27-.258h.89c.149 0 .27.117.27.258v.86c0 .14-.121.257-.27.257h-.89a.265.265 0 01-.27-.258zM1.43 5.758c0-.14.12-.258.265-.258h.895c.148 0 .265.117.265.258v.86c0 .14-.117.257-.265.257h-.895a.264.264 0 01-.265-.258zm0 2.75c0-.14.12-.258.265-.258h.895c.148 0 .265.117.265.258v.86c0 .14-.117.257-.265.257h-.895a.264.264 0 01-.265-.258zm7.5-7.133H7.855V.344A.352.352 0 007.5 0h-.715a.352.352 0 00-.355.344v1.031H3.57V.344A.352.352 0 003.215 0H2.5a.352.352 0 00-.355.344v1.031H1.07c-.59 0-1.07.46-1.07 1.031v1.031h10v-1.03c0-.571-.48-1.032-1.07-1.032zm0 0" id="surface1"/></svg>